<?xml version="1.0" encoding="UTF-8"?>
<svg version="1.1" width="256" height="256">
<path d="M0 0 C0.77403168 0.00141495 1.54806335 0.0028299 2.34555054 0.00428772 C4.82155192 0.00989222 7.29746338 0.02244542 9.7734375 0.03515625 C11.45051953 0.04017067 13.12760297 0.04473368 14.8046875 0.04882812 C18.91930556 0.0598631 23.03385628 0.07713071 27.1484375 0.09765625 C27.1484375 1.08765625 27.1484375 2.07765625 27.1484375 3.09765625 C30.1184375 3.09765625 33.0884375 3.09765625 36.1484375 3.09765625 C36.1484375 3.75765625 36.1484375 4.41765625 36.1484375 5.09765625 C37.7984375 5.09765625 39.4484375 5.09765625 41.1484375 5.09765625 C41.1484375 5.75765625 41.1484375 6.41765625 41.1484375 7.09765625 C42.7984375 7.09765625 44.4484375 7.09765625 46.1484375 7.09765625 C46.1484375 8.08765625 46.1484375 9.07765625 46.1484375 10.09765625 C46.9115625 10.38640625 47.6746875 10.67515625 48.4609375 10.97265625 C51.1484375 12.09765625 51.1484375 12.09765625 54.1484375 14.09765625 C54.1484375 14.75765625 54.1484375 15.41765625 54.1484375 16.09765625 C55.1384375 16.09765625 56.1284375 16.09765625 57.1484375 16.09765625 C57.1484375 16.75765625 57.1484375 17.41765625 57.1484375 18.09765625 C57.8084375 18.09765625 58.4684375 18.09765625 59.1484375 18.09765625 C59.1484375 18.75765625 59.1484375 19.41765625 59.1484375 20.09765625 C60.6334375 20.59265625 60.6334375 20.59265625 62.1484375 21.09765625 C62.1484375 21.75765625 62.1484375 22.41765625 62.1484375 23.09765625 C62.8084375 23.09765625 63.4684375 23.09765625 64.1484375 23.09765625 C64.6434375 26.06765625 64.6434375 26.06765625 65.1484375 29.09765625 C65.8084375 29.09765625 66.4684375 29.09765625 67.1484375 29.09765625 C67.1484375 29.75765625 67.1484375 30.41765625 67.1484375 31.09765625 C68.1384375 31.09765625 69.1284375 31.09765625 70.1484375 31.09765625 C71.1384375 33.40765625 72.1284375 35.71765625 73.1484375 38.09765625 C73.4784375 38.09765625 73.8084375 38.09765625 74.1484375 38.09765625 C74.4784375 41.06765625 74.8084375 44.03765625 75.1484375 47.09765625 C75.8084375 47.09765625 76.4684375 47.09765625 77.1484375 47.09765625 C77.22278742 52.82679428 77.27713422 58.55564926 77.31323242 64.28515625 C77.32828649 66.23279719 77.3487343 68.18040441 77.37475586 70.12792969 C77.41128803 72.93302753 77.42819783 75.73767579 77.44140625 78.54296875 C77.45689011 79.40882599 77.47237396 80.27468323 77.48832703 81.16677856 C77.48973291 86.25689139 76.89647583 89.64120655 74.1484375 94.09765625 C73.8184375 94.09765625 73.4884375 94.09765625 73.1484375 94.09765625 C72.8184375 95.74765625 72.4884375 97.39765625 72.1484375 99.09765625 C71.4884375 99.09765625 70.8284375 99.09765625 70.1484375 99.09765625 C69.9628125 100.24234375 69.9628125 100.24234375 69.7734375 101.41015625 C69.1484375 104.09765625 69.1484375 104.09765625 67.1484375 107.09765625 C66.4884375 107.09765625 65.8284375 107.09765625 65.1484375 107.09765625 C64.6534375 109.07765625 64.6534375 109.07765625 64.1484375 111.09765625 C63.4884375 111.09765625 62.8284375 111.09765625 62.1484375 111.09765625 C62.1484375 111.75765625 62.1484375 112.41765625 62.1484375 113.09765625 C61.1584375 113.09765625 60.1684375 113.09765625 59.1484375 113.09765625 C58.4884375 114.74765625 57.8284375 116.39765625 57.1484375 118.09765625 C56.1584375 118.09765625 55.1684375 118.09765625 54.1484375 118.09765625 C53.6534375 119.58265625 53.6534375 119.58265625 53.1484375 121.09765625 C52.4884375 121.09765625 51.8284375 121.09765625 51.1484375 121.09765625 C51.1484375 122.08765625 51.1484375 123.07765625 51.1484375 124.09765625 C47.92052195 126.24959995 46.86442941 126.29852068 43.1484375 126.09765625 C43.1484375 126.75765625 43.1484375 127.41765625 43.1484375 128.09765625 C41.4984375 128.42765625 39.8484375 128.75765625 38.1484375 129.09765625 C38.1484375 129.75765625 38.1484375 130.41765625 38.1484375 131.09765625 C36.4984375 131.09765625 34.8484375 131.09765625 33.1484375 131.09765625 C33.1484375 131.75765625 33.1484375 132.41765625 33.1484375 133.09765625 C18.2984375 133.09765625 3.4484375 133.09765625 -11.8515625 133.09765625 C-11.8515625 132.43765625 -11.8515625 131.77765625 -11.8515625 131.09765625 C-14.4915625 131.09765625 -17.1315625 131.09765625 -19.8515625 131.09765625 C-19.8515625 130.43765625 -19.8515625 129.77765625 -19.8515625 129.09765625 C-21.5015625 128.76765625 -23.1515625 128.43765625 -24.8515625 128.09765625 C-24.8515625 127.43765625 -24.8515625 126.77765625 -24.8515625 126.09765625 C-25.8415625 126.09765625 -26.8315625 126.09765625 -27.8515625 126.09765625 C-27.8515625 125.43765625 -27.8515625 124.77765625 -27.8515625 124.09765625 C-30.50385062 123.02240431 -33.13524704 122.00309474 -35.8515625 121.09765625 C-35.8515625 120.10765625 -35.8515625 119.11765625 -35.8515625 118.09765625 C-36.5115625 118.09765625 -37.1715625 118.09765625 -37.8515625 118.09765625 C-37.8515625 117.43765625 -37.8515625 116.77765625 -37.8515625 116.09765625 C-39.3365625 115.60265625 -39.3365625 115.60265625 -40.8515625 115.09765625 C-40.8515625 114.43765625 -40.8515625 113.77765625 -40.8515625 113.09765625 C-41.5115625 113.09765625 -42.1715625 113.09765625 -42.8515625 113.09765625 C-42.8515625 112.10765625 -42.8515625 111.11765625 -42.8515625 110.09765625 C-43.8415625 109.76765625 -44.8315625 109.43765625 -45.8515625 109.09765625 C-46.5390625 107.03515625 -46.5390625 107.03515625 -46.8515625 105.09765625 C-47.5115625 105.09765625 -48.1715625 105.09765625 -48.8515625 105.09765625 C-49.5321875 103.64359375 -49.5321875 103.64359375 -50.2265625 102.16015625 C-51.50942471 99.02686043 -51.50942471 99.02686043 -53.8515625 98.09765625 C-53.8515625 96.11765625 -53.8515625 94.13765625 -53.8515625 92.09765625 C-54.5115625 92.09765625 -55.1715625 92.09765625 -55.8515625 92.09765625 C-59.13410702 77.75606294 -60.01590813 63.70698927 -57.8515625 49.09765625 C-57.1915625 49.09765625 -56.5315625 49.09765625 -55.8515625 49.09765625 C-55.8515625 46.78765625 -55.8515625 44.47765625 -55.8515625 42.09765625 C-55.1915625 42.09765625 -54.5315625 42.09765625 -53.8515625 42.09765625 C-53.8515625 40.11765625 -53.8515625 38.13765625 -53.8515625 36.09765625 C-53.1915625 36.09765625 -52.5315625 36.09765625 -51.8515625 36.09765625 C-51.5215625 34.44765625 -51.1915625 32.79765625 -50.8515625 31.09765625 C-50.1915625 31.09765625 -49.5315625 31.09765625 -48.8515625 31.09765625 C-48.8515625 30.43765625 -48.8515625 29.77765625 -48.8515625 29.09765625 C-48.1915625 29.09765625 -47.5315625 29.09765625 -46.8515625 29.09765625 C-46.5215625 28.10765625 -46.1915625 27.11765625 -45.8515625 26.09765625 C-44.8615625 26.09765625 -43.8715625 26.09765625 -42.8515625 26.09765625 C-42.8515625 25.10765625 -42.8515625 24.11765625 -42.8515625 23.09765625 C-42.1915625 23.09765625 -41.5315625 23.09765625 -40.8515625 23.09765625 C-40.8515625 21.44765625 -40.8515625 19.79765625 -40.8515625 18.09765625 C-39.8615625 18.09765625 -38.8715625 18.09765625 -37.8515625 18.09765625 C-37.5215625 17.43765625 -37.1915625 16.77765625 -36.8515625 16.09765625 C-35.5315625 16.09765625 -34.2115625 16.09765625 -32.8515625 16.09765625 C-32.5215625 14.77765625 -32.1915625 13.45765625 -31.8515625 12.09765625 C-31.1915625 12.09765625 -30.5315625 12.09765625 -29.8515625 12.09765625 C-29.8515625 11.43765625 -29.8515625 10.77765625 -29.8515625 10.09765625 C-28.2015625 10.09765625 -26.5515625 10.09765625 -24.8515625 10.09765625 C-24.8515625 9.10765625 -24.8515625 8.11765625 -24.8515625 7.09765625 C-24.1915625 7.09765625 -23.5315625 7.09765625 -22.8515625 7.09765625 C-22.8515625 6.43765625 -22.8515625 5.77765625 -22.8515625 5.09765625 C-20.8715625 5.09765625 -18.8915625 5.09765625 -16.8515625 5.09765625 C-16.8515625 4.43765625 -16.8515625 3.77765625 -16.8515625 3.09765625 C-14.5415625 3.09765625 -12.2315625 3.09765625 -9.8515625 3.09765625 C-9.8515625 2.43765625 -9.8515625 1.77765625 -9.8515625 1.09765625 C-6.73202122 -0.46211439 -3.42196866 -0.02338501 0 0 Z M5.1484375 15.09765625 C5.1484375 15.75765625 5.1484375 16.41765625 5.1484375 17.09765625 C1.5184375 17.42765625 -2.1115625 17.75765625 -5.8515625 18.09765625 C-5.8515625 18.75765625 -5.8515625 19.41765625 -5.8515625 20.09765625 C-8.1615625 20.09765625 -10.4715625 20.09765625 -12.8515625 20.09765625 C-12.8515625 20.75765625 -12.8515625 21.41765625 -12.8515625 22.09765625 C-14.8315625 22.09765625 -16.8115625 22.09765625 -18.8515625 22.09765625 C-18.8515625 23.08765625 -18.8515625 24.07765625 -18.8515625 25.09765625 C-19.5115625 25.09765625 -20.1715625 25.09765625 -20.8515625 25.09765625 C-21.1815625 25.75765625 -21.5115625 26.41765625 -21.8515625 27.09765625 C-23.9140625 27.72265625 -23.9140625 27.72265625 -25.8515625 28.09765625 C-25.8515625 29.08765625 -25.8515625 30.07765625 -25.8515625 31.09765625 C-26.5115625 31.09765625 -27.1715625 31.09765625 -27.8515625 31.09765625 C-27.8515625 31.75765625 -27.8515625 32.41765625 -27.8515625 33.09765625 C-28.5115625 33.09765625 -29.1715625 33.09765625 -29.8515625 33.09765625 C-30.1815625 34.74765625 -30.5115625 36.39765625 -30.8515625 38.09765625 C-31.8415625 38.09765625 -32.8315625 38.09765625 -33.8515625 38.09765625 C-33.8515625 40.07765625 -33.8515625 42.05765625 -33.8515625 44.09765625 C-34.5115625 44.09765625 -35.1715625 44.09765625 -35.8515625 44.09765625 C-36.5115625 45.41765625 -37.1715625 46.73765625 -37.8515625 48.09765625 C-38.1815625 48.09765625 -38.5115625 48.09765625 -38.8515625 48.09765625 C-39.1815625 52.38765625 -39.5115625 56.67765625 -39.8515625 61.09765625 C-40.1815625 61.09765625 -40.5115625 61.09765625 -40.8515625 61.09765625 C-40.8515625 65.71765625 -40.8515625 70.33765625 -40.8515625 75.09765625 C-40.5215625 75.09765625 -40.1915625 75.09765625 -39.8515625 75.09765625 C-39.80257812 75.73574219 -39.75359375 76.37382813 -39.703125 77.03125 C-39.62835938 77.85753906 -39.55359375 78.68382812 -39.4765625 79.53515625 C-39.40695313 80.35886719 -39.33734375 81.18257813 -39.265625 82.03125 C-39.12898438 82.71316406 -38.99234375 83.39507812 -38.8515625 84.09765625 C-38.1915625 84.42765625 -37.5315625 84.75765625 -36.8515625 85.09765625 C-36.2265625 88.16015625 -36.2265625 88.16015625 -35.8515625 91.09765625 C-35.1915625 91.09765625 -34.5315625 91.09765625 -33.8515625 91.09765625 C-33.8515625 92.74765625 -33.8515625 94.39765625 -33.8515625 96.09765625 C-33.1915625 96.09765625 -32.5315625 96.09765625 -31.8515625 96.09765625 C-29.8715625 99.56265625 -29.8715625 99.56265625 -27.8515625 103.09765625 C-27.1915625 103.09765625 -26.5315625 103.09765625 -25.8515625 103.09765625 C-25.8515625 103.75765625 -25.8515625 104.41765625 -25.8515625 105.09765625 C-22.79597827 108.12283534 -22.79597827 108.12283534 -18.8515625 109.09765625 C-18.8515625 109.75765625 -18.8515625 110.41765625 -18.8515625 111.09765625 C-15.8815625 112.08765625 -12.9115625 113.07765625 -9.8515625 114.09765625 C-9.8515625 114.75765625 -9.8515625 115.41765625 -9.8515625 116.09765625 C-6.8815625 116.42765625 -3.9115625 116.75765625 -0.8515625 117.09765625 C-0.8515625 117.42765625 -0.8515625 117.75765625 -0.8515625 118.09765625 C6.4084375 118.09765625 13.6684375 118.09765625 21.1484375 118.09765625 C21.1484375 117.76765625 21.1484375 117.43765625 21.1484375 117.09765625 C25.6034375 116.60265625 25.6034375 116.60265625 30.1484375 116.09765625 C30.1484375 115.43765625 30.1484375 114.77765625 30.1484375 114.09765625 C31.4684375 113.76765625 32.7884375 113.43765625 34.1484375 113.09765625 C34.1484375 112.43765625 34.1484375 111.77765625 34.1484375 111.09765625 C34.7259375 110.97390625 35.3034375 110.85015625 35.8984375 110.72265625 C38.17179517 110.09116801 40.0737904 109.20907434 42.1484375 108.09765625 C42.1484375 107.10765625 42.1484375 106.11765625 42.1484375 105.09765625 C42.9115625 104.87078125 43.6746875 104.64390625 44.4609375 104.41015625 C47.7237402 102.81669446 48.61104459 101.33427289 50.1484375 98.09765625 C50.1484375 97.43765625 50.1484375 96.77765625 50.1484375 96.09765625 C50.8084375 96.09765625 51.4684375 96.09765625 52.1484375 96.09765625 C52.6434375 94.61265625 52.6434375 94.61265625 53.1484375 93.09765625 C53.8084375 92.76765625 54.4684375 92.43765625 55.1484375 92.09765625 C55.80616178 89.06831134 55.80616178 89.06831134 56.1484375 86.09765625 C56.4784375 86.09765625 56.8084375 86.09765625 57.1484375 86.09765625 C57.1484375 83.45765625 57.1484375 80.81765625 57.1484375 78.09765625 C57.8084375 78.09765625 58.4684375 78.09765625 59.1484375 78.09765625 C60.77381805 74.84689515 60.29121645 71.29029932 60.2734375 67.72265625 C60.27730469 66.954375 60.28117187 66.18609375 60.28515625 65.39453125 C60.28386719 64.64945313 60.28257812 63.904375 60.28125 63.13671875 C60.27955811 62.11892334 60.27955811 62.11892334 60.27783203 61.08056641 C60.14110584 58.98530208 59.71614705 57.11536477 59.1484375 55.09765625 C58.4884375 55.09765625 57.8284375 55.09765625 57.1484375 55.09765625 C57.1484375 52.78765625 57.1484375 50.47765625 57.1484375 48.09765625 C56.4884375 48.09765625 55.8284375 48.09765625 55.1484375 48.09765625 C55.1896875 47.31390625 55.2309375 46.53015625 55.2734375 45.72265625 C55.43572484 42.93649506 55.43572484 42.93649506 53.1484375 41.09765625 C52.43435416 39.11409142 51.76226008 37.11450188 51.1484375 35.09765625 C50.4884375 35.09765625 49.8284375 35.09765625 49.1484375 35.09765625 C49.1484375 34.43765625 49.1484375 33.77765625 49.1484375 33.09765625 C48.4884375 33.09765625 47.8284375 33.09765625 47.1484375 33.09765625 C47.1484375 32.43765625 47.1484375 31.77765625 47.1484375 31.09765625 C45.61496715 29.25749183 44.29695891 28.17191695 42.1484375 27.09765625 C40.01643117 26.03165309 38.70553479 24.88831814 37.1484375 23.09765625 C37.1484375 22.76765625 37.1484375 22.43765625 37.1484375 22.09765625 C35.1684375 22.09765625 33.1884375 22.09765625 31.1484375 22.09765625 C31.1484375 21.43765625 31.1484375 20.77765625 31.1484375 20.09765625 C23.86218106 18.25582036 16.80451048 16.77050408 9.29296875 16.30859375 C7.1484375 16.09765625 7.1484375 16.09765625 5.1484375 15.09765625 Z " fill="#151515" transform="translate(70.8515625,12.90234375)"/>
<path d="M0 0 C13.53 0 27.06 0 41 0 C41.495 0.495 41.495 0.495 42 1 C43.84891946 1.23363881 45.70488031 1.41303635 47.5625 1.5625 C49.08037109 1.68818359 49.08037109 1.68818359 50.62890625 1.81640625 C51.80259766 1.90728516 51.80259766 1.90728516 53 2 C53 2.99 53 3.98 53 5 C55.64 5 58.28 5 61 5 C61 5.66 61 6.32 61 7 C61.66 7 62.32 7 63 7 C63 7.66 63 8.32 63 9 C63.99 9.33 64.98 9.66 66 10 C66 10.66 66 11.32 66 12 C66.99 12.33 67.98 12.66 69 13 C69 13.66 69 14.32 69 15 C69.99 15.33 70.98 15.66 72 16 C72 16.66 72 17.32 72 18 C72.66 18 73.32 18 74 18 C74 19.32 74 20.64 74 22 C74.66 22 75.32 22 76 22 C76 30.58 76 39.16 76 48 C75.34 48 74.68 48 74 48 C74 49.65 74 51.3 74 53 C73.34 53 72.68 53 72 53 C71.62875 54.36125 71.62875 54.36125 71.25 55.75 C69.92983923 59.18241801 68.93692372 60.81828523 66 63 C63.25 63.25 63.25 63.25 61 63 C61 63.99 61 64.98 61 66 C60.01 66 59.02 66 58 66 C58 66.66 58 67.32 58 68 C58.99 68.33 59.98 68.66 61 69 C61 69.99 61 70.98 61 72 C61.66 72 62.32 72 63 72 C63 73.65 63 75.3 63 77 C63.99 77 64.98 77 66 77 C66 77.66 66 78.32 66 79 C66.66 79 67.32 79 68 79 C68.37125 80.11375 68.37125 80.11375 68.75 81.25 C69.84296181 84.09866969 69.84296181 84.09866969 72.125 86.0625 C74 88 74 88 74 92 C74.66 92 75.32 92 76 92 C76 92.99 76 93.98 76 95 C76.99 95 77.98 95 79 95 C79.33 96.65 79.66 98.3 80 100 C80.66 100 81.32 100 82 100 C84.04169485 102.90548882 85 104.40142046 85 108 C85.66 108 86.32 108 87 108 C89 111 89 111 89 115 C89.99 115 90.98 115 92 115 C95 120.625 95 120.625 95 124 C95.66 124 96.32 124 97 124 C96.67 126.97 96.34 129.94 96 133 C91.05 133 86.1 133 81 133 C80.34 131.68 79.68 130.36 79 129 C78.34 128.67 77.68 128.34 77 128 C75.96484375 126.40625 75.96484375 126.40625 74.9375 124.5 C73.6858579 122.0882696 73.6858579 122.0882696 72 120 C71.95936168 118.33382885 71.957279 116.66611905 72 115 C71.34 115 70.68 115 70 115 C70 114.34 70 113.68 70 113 C68.515 112.505 68.515 112.505 67 112 C66.67 110.35 66.34 108.7 66 107 C65.34 107 64.68 107 64 107 C62.375 105.75 62.375 105.75 61 104 C61 102.68 61 101.36 61 100 C60.34 100 59.68 100 59 100 C59 98.68 59 97.36 59 96 C58.34 96 57.68 96 57 96 C57 95.34 57 94.68 57 94 C56.34 94 55.68 94 55 94 C54.34 92.35 53.68 90.7 53 89 C52.34 89 51.68 89 51 89 C48 83.25 48 83.25 48 81 C47.34 81 46.68 81 46 81 C46 80.34 46 79.68 46 79 C45.34 79 44.68 79 44 79 C44 78.01 44 77.02 44 76 C42.02 76 40.04 76 38 76 C38 75.67 38 75.34 38 75 C31.07 74.67 24.14 74.34 17 74 C17.01047363 75.6806958 17.02094727 77.3613916 17.03173828 79.09301758 C17.06398381 84.64500785 17.08696744 90.19698466 17.10362434 95.74904346 C17.1140632 99.11538229 17.12822409 102.48161985 17.15087891 105.84790039 C17.17507811 109.71763815 17.18647192 113.58723176 17.1953125 117.45703125 C17.20563507 118.66647903 17.21595764 119.87592682 17.22659302 121.12202454 C17.22674408 122.24296005 17.22689514 123.36389557 17.22705078 124.51879883 C17.231492 125.50697098 17.23593323 126.49514313 17.24050903 127.51325989 C17 130 17 130 15 133 C10.05 133 5.1 133 0 133 C0 89.11 0 45.22 0 0 Z M15 17 C15.99 17.495 15.99 17.495 17 18 C17 30.87 17 43.74 17 57 C27.4037624 57.04050031 27.4037624 57.04050031 37.75 56.625 C38.92046875 56.55539063 40.0909375 56.48578125 41.296875 56.4140625 C42.63492188 56.20910156 42.63492188 56.20910156 44 56 C44.33 55.34 44.66 54.68 45 54 C45.763125 53.855625 46.52625 53.71125 47.3125 53.5625 C51.16855745 52.75541821 53.10657895 50.95723684 55.75 48.125 C57.2547776 45.56687807 57.24329906 43.9195887 57 41 C57.66 41 58.32 41 59 41 C59.05429959 39.25034642 59.09292823 37.50020213 59.125 35.75 C59.14820313 34.77546875 59.17140625 33.8009375 59.1953125 32.796875 C58.99664509 29.95195765 58.37538147 28.44752923 57 26 C57 25.34 57 24.68 57 24 C56.01 24 55.02 24 54 24 C54 23.34 54 22.68 54 22 C52.68 22 51.36 22 50 22 C50 21.34 50 20.68 50 20 C49.195625 19.87625 48.39125 19.7525 47.5625 19.625 C46.2940625 19.315625 46.2940625 19.315625 45 19 C44.67 18.34 44.34 17.68 44 17 C34.43 17 24.86 17 15 17 Z " fill="#151515" transform="translate(147,110)"/>
<path d="" fill="#151515" transform="translate(0,0)"/>
<path d="" fill="#151515" transform="translate(0,0)"/>
<path d="" fill="#151515" transform="translate(0,0)"/>
<path d="" fill="#151515" transform="translate(0,0)"/>
<path d="" fill="#151515" transform="translate(0,0)"/>
<path d="" fill="#151515" transform="translate(0,0)"/>
<path d="" fill="#151515" transform="translate(0,0)"/>
<path d="" fill="#151515" transform="translate(0,0)"/>
<path d="" fill="#151515" transform="translate(0,0)"/>
</svg>
